{
    "asset" : {
        "generator" : "Khronos glTF Blender I/O v3.4.49",
        "version" : "2.0"
    },
    "scene" : 0,
    "scenes" : [
        {
            "name" : "Scene",
            "nodes" : [
                0
            ]
        }
    ],
    "nodes" : [
        {
            "mesh" : 0,
            "name" : "tb3",
            "rotation" : [
                0.70710688829422,
                0,
                0,
                0.7071066498756409
            ],
            "scale" : [
                0.20328077673912048,
                0.20328077673912048,
                0.20328077673912048
            ]
        }
    ],
    "meshes" : [
        {
            "name" : "tb3",
            "primitives" : [
                {
                    "attributes" : {
                        "POSITION" : 0,
                        "NORMAL" : 1
                    },
                    "indices" : 2
                }
            ]
        }
    ],
    "accessors" : [
        {
            "bufferView" : 0,
            "componentType" : 5126,
            "count" : 30541,
            "max" : [
                10.75,
                10.492188453674316,
                2.306641101837158
            ],
            "min" : [
                -10.75,
                -14.687501907348633,
                -19.96875
            ],
            "type" : "VEC3"
        },
        {
            "bufferView" : 1,
            "componentType" : 5126,
            "count" : 30541,
            "type" : "VEC3"
        },
        {
            "bufferView" : 2,
            "componentType" : 5123,
            "count" : 30570,
            "type" : "SCALAR"
        }
    ],
    "bufferViews" : [
        {
            "buffer" : 0,
            "byteLength" : 366492,
            "byteOffset" : 0,
            "target" : 34962
        },
        {
            "buffer" : 0,
            "byteLength" : 366492,
            "byteOffset" : 366492,
            "target" : 34962
        },
        {
            "buffer" : 0,
            "byteLength" : 61140,
            "byteOffset" : 732984,
            "target" : 34963
        }
    ],
    "buffers" : [
        {
            "byteLength" : 794124,
            "uri" : "thomas-helmet.bin"
        }
    ]
}
